<svg xmlns="http://www.w3.org/2000/svg" viewBox="0 0 493.99 107.9"><defs><style>.bubble{fill:#222;}</style></defs><title>_Fichier 9buble</title><g id="Calque_2" data-name="Calque 2"><g id="Calque_1-2" data-name="Calque 1"><path class="bubble" d="M492.24,104.4c-34.4,0-67.6-2.55-98.76-18.51C342.17,59.61,329.28,14.94,270,2.79h0A141.58,141.58,0,0,0,244.75,0a141.58,141.58,0,0,0-25.23,2.78h-.05C160.22,14.94,147.33,59.61,96,85.89a172.18,172.18,0,0,1-49.16,16.37c-15,2.57-30,2.14-45.11,2.14a1.75,1.75,0,0,0,0,3.5H492.24a1.75,1.75,0,0,0,0-3.5Z"/></g></g></svg>